<?xml version="1.0" encoding="utf-8"?>
<!-- Generator: Adobe Illustrator 24.1.2, SVG Export Plug-In . SVG Version: 6.00 Build 0)  -->
<svg version="1.1" id="Layer_1" xmlns="http://www.w3.org/2000/svg" xmlns:xlink="http://www.w3.org/1999/xlink" x="0px" y="0px"
	 viewBox="0 0 374.8 354.7" style="enable-background:new 0 0 374.8 354.7;" xml:space="preserve">
<g id="Canada">
	<g id="NewfoundlandLabrador">
		<path id="Labrador" style="fill:#D6D6D6;" d="M303.2,262.7c-0.7-0.3-2.2-0.6-3.2-0.6h-1.9l-0.2-1.5c-0.1-0.8-0.5-1.9-0.7-2.2
			c-0.4-0.6-0.7-0.6-1.9-0.2c-0.8,0.3-1.6,0.4-1.8,0.3c-0.2-0.1-0.4-1.1-0.4-2.1c0-1.8-0.1-1.9-1.9-3.2c-2.2-1.6-3.6-4.2-2.9-5.3
			c0.3-0.4,0.8-1.4,1.3-2.3c0.4-0.9,1.2-1.9,1.6-2.3c0.7-0.7,0.8-0.7,2.7,0c1.9,0.7,2,0.7,3.1-0.1c1.2-0.9,4.2-1,4.5-0.1
			c0.1,0.3-0.9,1.6-2.2,3c-2.2,2.3-2.3,2.5-1.8,3.1c0.9,0.9,1.8,0.8,3.3-0.3c1-0.7,1.8-1,3.2-1c1.7,0,1.9-0.1,2.4-1.1
			c0.6-1.1,0.8-2.8,0.4-3.2c-0.1-0.1-0.7,0-1.3,0.3c-1.2,0.6-2.8,0.3-2.8-0.4c0-0.3,0.4-1.3,0.8-2.3c0.4-1,0.7-2.2,0.6-2.7
			c-0.4-1.3-2.5-5.3-3.9-7.4c-1.1-1.7-1.4-2.5-1.7-5.6c-0.6-5.7-0.9-6.3-2.7-7.1c-1.5-0.7-2.2-1.7-1.7-2.6c0.1-0.2,0.3-1.5,0.4-2.7
			l0.1-2.3h-1.7c-1.8,0-1.8,0-2.3-2.6c-0.1-0.7-0.6-1.5-1-1.9c-0.8-0.7-2.1-4.2-1.8-4.9c0.1-0.3,1.6,0.9,3.6,2.8
			c5,4.8,6,5.9,7.9,8.1c1,1.2,2.1,2.1,2.8,2.2c1,0.2,1.3,0.6,2,2.5c0.7,2,1,2.3,2.4,2.9l1.6,0.6l-0.2,1.7c-0.4,2.7,0.3,4,2.4,4.9
			c1,0.4,2.5,0.9,3.5,1.2c1,0.2,2.3,1,3.1,1.6c1.1,1,1.8,1.2,4.4,1.5c1.7,0.2,3.3,0.4,3.5,0.6c0.2,0.1,0.9-0.1,1.5-0.4
			c1-0.6,1.2-0.6,3.1,0c1.1,0.4,2,0.8,2,1c0,0.2-1.8,2.2-4,4.5c-4.3,4.4-5.7,6.5-5,7.2c0.6,0.6,2.3-0.9,3.7-3.3
			c0.6-1.1,2.1-2.9,3.2-4c2.2-2.1,2.7-2.2,4.3-0.7c0.6,0.6,1.1,0.7,2.2,0.5c1.1-0.2,1.8,0,3.9,1.2c2.4,1.4,2.5,1.5,2.3,2.8
			c-0.1,1.1,0.1,1.7,1.4,3.5c0.9,1.2,1.7,2.4,1.8,2.8c0.2,0.7-0.9,2.9-2.5,5l-0.8,1l-1.4-1.6l-1.4-1.6l-4.4,1.5
			c-2.4,0.8-7.1,2.5-10.4,3.8s-7.5,2.8-9.3,3.4c-3.1,1-3.3,1-4.8,0.4c-2.3-0.9-2.6-0.8-2.8,1.2c-0.4,3.4-0.5,3.6-1.7,3.6
			C305,263.3,303.9,263,303.2,262.7L303.2,262.7z"/>
		<path id="Newfoundland" style="fill:#D6D6D6;" d="M340.3,283.4c-0.5-0.9-0.4-1.7,0.4-3.7c0.4-1,0.4-1.4,0-2.2
			c-0.4-0.7-0.4-1.1-0.1-1.7c0.3-0.5,0.4-3.1,0.4-6.5c0-7.5,0.6-14.6,1.3-16c0.3-0.6,1.2-1.6,2-2.2c1.3-1,1.4-1,2-0.4
			c0.7,0.7,0.9,4.5,0.4,9.4l-0.3,2.7l1-1.1c0.8-0.9,1.2-1.1,2.1-0.8c0.9,0.2,1.2,0.5,1.4,1.6c0.3,1.7,1,1.7,5.2,0.2
			c3.8-1.4,5.6-1.5,6.2-0.4c0.2,0.4,0.3,1.1,0.2,1.6c-0.4,1.2,0.5,1.9,2.4,1.9c1.5,0,1.7,0.1,1.7,0.8c0,0.4-0.3,1.3-0.8,1.8
			c-0.5,0.7-0.7,1.3-0.5,2c0.5,2.2,0.5,2.2,1.6,0.9c1.2-1.5,1.6-1.6,1.9-0.2c0.3,1,0.4,1,2.5,0.5c0.5-0.1,0.6,0.4,0.7,3
			c0.1,2.8,0,3.3-0.7,4c-0.9,0.9-1.7,1-2.4,0.2c-0.4-0.5-0.6-0.5-1.2,0.1c-0.4,0.4-0.8,0.6-0.9,0.5c-0.1-0.1-0.4-1.3-0.6-2.7
			c-0.5-3-1.3-4.1-1.7-2.4c-0.2,0.6-0.7,1.6-1.2,2.3c-0.5,0.6-1.1,2.1-1.4,3.2c-0.6,2.6-1.2,3.2-3.2,3.2c-1.4,0-1.5-0.1-1.2-0.7
			c0.2-0.4,0.7-0.9,1-1.2c0.3-0.3,0.6-1,0.6-1.7c0-0.9-0.1-1.1-0.7-0.9c-0.4,0.2-1.4,0.4-2.2,0.5c-0.8,0.1-2.6,0.8-4,1.5
			c-1.4,0.7-2.8,1.3-3.2,1.3c-0.4,0-2.4,0.6-4.3,1.4c-2,0.7-3.7,1.4-3.9,1.4C340.9,284.2,340.6,283.9,340.3,283.4L340.3,283.4z"/>
	</g>
	<path id="NewBrunswick" style="fill:#D6D6D6;" d="M306.9,312.8c-2.2-2.5-3.2-4.7-3.6-7.6c-0.1-1.2-0.6-2.5-0.9-2.9
		c-0.8-0.9-2.5-1.8-3.5-1.8c-0.7,0-0.8-0.2-0.8-1.7c0-1.9-0.1-1.8,3.2-2.3c0.8-0.1,2-0.6,2.6-1c1.8-1.3,4.3-2,6-1.8
		c1.1,0.2,1.8,0,3.1-0.7c2.3-1.3,3.1-1.3,2.7,0.1c-0.5,1.8-0.3,3.7,0.7,5.7c1.3,2.5,2.4,3.5,4.4,3.8c1.6,0.3,2.1,0.7,1.3,1.2
		c-0.2,0.1-1.2,1.5-2.3,3c-2,2.9-5.1,6.1-6,6.1c-0.3,0-0.9,0.4-1.4,1c-0.6,0.7-1.2,1-2.3,1C308.9,314.9,308.6,314.7,306.9,312.8
		L306.9,312.8z"/>
	<path id="PrinceEdwardIsland" style="fill:#D6D6D6;" d="M323.4,301.5c-1.5-0.3-3.2-0.6-3.6-0.8c-0.9-0.3-1-1.3-0.2-2.3
		c0.5-0.7,0.6-0.7,1.9,0.3l1.4,1l2.6-0.6c1.5-0.3,3.1-0.7,3.8-0.8c1-0.2,1.1-0.2,0.9,0.5c-0.1,0.4-0.3,1.3-0.5,2
		c-0.2,1.2-0.3,1.3-1.9,1.2C327,302,325,301.8,323.4,301.5L323.4,301.5z"/>
	<g id="NovaScotia">
		<path id="CapeBreton" style="fill:#D6D6D6;" d="M336.4,301.3c-0.8-0.9-1.4-1.8-1.4-2c0-0.9,2.8-7.7,3.1-7.7c0.5,0,1.1,1.7,1.1,2.9
			c0,0.6,0.4,1.2,1.4,1.7c0.8,0.4,1.5,1.1,1.6,1.4c0.3,0.8-0.9,3.3-1.8,3.5c-0.4,0.1-1,0.6-1.4,1c-0.4,0.4-0.8,0.8-1,0.8
			C337.9,302.9,337.2,302.2,336.4,301.3L336.4,301.3z"/>
		<path id="AcadianPeninsula" style="fill:#D6D6D6;" d="M317.7,323.8c-0.9-0.4-1.9-2.2-2.3-4.1c-0.4-2,3.7-7.4,7.6-10
			c2.1-1.4,1.5-1.8-0.8-0.6c-0.9,0.5-1.7,0.7-1.9,0.6c-0.4-0.4,1.4-3.5,2.7-4.7c1-0.9,1.6-1.1,4.4-1.4c1.8-0.2,3.6-0.5,4.1-0.7
			c1-0.6,3.7-0.5,4.9,0c1.9,0.9,1.7,1.8-1.2,4.7c-1.5,1.5-3.4,3.1-4.2,3.7c-0.9,0.6-2,1.6-2.5,2.3c-0.6,0.8-1.2,1.3-1.8,1.3
			c-0.7,0-1,0.3-1.4,1.5c-0.8,2.4-1.9,4.4-3.5,6.1C320.1,324.3,319.2,324.5,317.7,323.8L317.7,323.8z"/>
	</g>
	<g id="Quebec" transform="translate(1.3625671,-0.454189)">
		<path id="QcAnticosti" style="fill:#D6D6D6;" d="M314.5,279.2c-1.5-0.6-2.8-1.2-2.8-1.3c-0.1-0.8,0-1,1.1-1.5
			c2.8-1.2,12,0.6,12,2.3c0,0.6-0.4,0.8-1.8,0.9C317.6,280.3,317.3,280.3,314.5,279.2z"/>
		<path id="QcQuebec" style="fill:#D6D6D6;" d="M271.2,323.6c-0.2-0.3-0.6-1-0.9-1.6c-0.8-1.5-1.9-1.6-4.6-0.4
			c-2.8,1.3-5.6,1.4-6.8,0.3c-1.3-1.2-3.9-2.4-6.8-3c-3.4-0.8-4.7-1.3-6.3-2.4c-2.3-1.7-2.7-3.2-4.5-18.6
			c-0.9-7.8-1.8-14.9-1.9-15.6c-0.2-1.2-0.1-1.5,0.6-1.7c0.5-0.2,0.8-0.6,0.8-1.3c0-0.6,0.3-1.5,0.6-2c0.8-1.5,0.7-2.1-1.1-6.8
			c-0.9-2.4-1.8-5.1-2-6c-0.1-0.9-0.7-2.1-1.1-2.7c-0.5-0.6-1-1.5-1.2-2c-0.2-0.5-0.5-1.2-0.7-1.5c-0.3-0.4-0.1-0.8,1.3-1.9
			c3.1-2.4,6.4-6.2,7.5-8.4c1.6-3.3,1.9-5.6,1.2-9.1c-1.1-5.4-2.6-7.6-7.3-10.8c-2.5-1.7-2.9-2.8-2-5.1c2.6-6.7,2.7-7.6,0.7-11.9
			c-0.9-2-1.2-3.1-1.2-4.9c0-1.7-0.3-3.2-1.2-5.4l-1.2-3.1l0.7-1.2c1-1.8,2.4-2.1,6.2-1.6c4.5,0.7,5.3,0.6,7.3-0.7
			c1.8-1.1,1.9-1.1,3.2-0.6c0.8,0.3,2.8,1.4,4.4,2.4c2.4,1.4,3.1,2.1,3.5,3.1c0.2,0.7,0.6,1.4,0.7,1.5c0.2,0.1,8,1.8,8.5,1.8
			c0.1,0,0.1,0.9,0.1,1.9c0,2.5,1.7,8.2,3,10.4c1,1.5,1.3,1.8,2.4,1.8c0.9,0,2,0.5,3.5,1.5c1.2,0.8,2.4,1.4,2.7,1.4
			c0.8,0,2.3-1.7,3.8-4.4c1.2-2.2,1.5-4.1,1.1-7.6c-0.1-1.3,0.1-2.6,0.6-3.3c0.5-0.7,0.6-0.7,1,0.4c0.2,0.6,0.9,1.9,1.5,2.9
			c0.6,1,1.2,2.4,1.4,3.2c0.2,1.4,0.3,1.5,1.8,1.5h1.6l-0.2,2.9c-0.3,3.2-0.1,3.6,2.3,4.9c1.1,0.6,1.2,0.9,1.4,3.1
			c0.5,4.4,1.3,7.7,2.3,9c0.5,0.7,1.7,2.6,2.5,4.3c1.5,2.8,1.5,3.2,1.1,4.3c-0.5,1.2-0.6,1.2-2.7,1.1c-1.9-0.1-2.4,0-3.1,0.7
			c-0.9,0.8-1,0.8-2.8,0.2c-1-0.3-2.1-0.6-2.5-0.6c-0.7,0-3.1,2.9-3.1,3.7c0,0.3-0.4,1.1-0.8,1.9c-0.6,1-0.7,1.7-0.6,2.4
			c0.4,1.7,2,3.8,3.5,4.7c1.3,0.8,1.4,1,1.4,2.7c0,2.2,0.8,2.9,3,2.6c1.2-0.2,1.3-0.1,1.7,1.3c0.4,1.7,1.3,2.3,3,2.3
			c0.6,0,1.8,0.3,2.5,0.6c0.8,0.3,2.4,0.6,3.5,0.6h2.1l0.2-1.5c0.5-3.4,0.4-3.2,2.3-3c2,0.3,4-0.3,12.4-3.4c3.4-1.3,8.4-3.1,11-4
			l4.8-1.7l1,1.3l1,1.3l-2.7,2.5c-2.4,2.2-2.9,3-4.2,6.1c-0.8,2-1.9,4.1-2.4,4.7c-1.5,1.8-4.6,3.1-14.2,6.1
			c-14.3,4.5-15.8,5.2-16.5,7.9c-0.9,3.5-1.6,5.3-2.1,5.3c-1.6,0-4.8,4.8-7.8,11.7c-2.3,5.2-4.2,8-9.2,13.1c-2.4,2.4-4.2,4.4-4,4.4
			c0.2,0,2.4-2,5-4.4c4.9-4.6,7.5-8,9.1-12c1.8-4.4,5.8-8.6,12.5-13.1c3.4-2.3,5.4-3.1,7.6-3.1c1.6,0,2.1,0.2,3,1.1
			c1.6,1.6,1.6,3.6,0,5.7c-1.3,1.7-2.2,2.2-5.6,2.9c-1.3,0.2-3.4,1-4.7,1.6c-1.3,0.6-3.1,1.3-4.1,1.4c-2.9,0.4-3.1,0.6-3.1,3.2v2.3
			l-1.9,0.3c-1.7,0.2-2,0.4-2.5,1.5c-0.8,1.8-1.3,3.7-2.2,9.1c-0.9,5.4-1.2,6.3-3.6,8.5c-1.6,1.6-1.9,1.7-6.7,2.6
			C273.6,324.2,271.6,324.3,271.2,323.6L271.2,323.6z"/>
	</g>
	<path id="Ontario" style="fill:#D6D6D6;" d="M230.3,352.2c0.4-0.5,0.9-0.8,1.2-0.8c1,0,1.5-0.8,1.8-3.1c0.2-1.6,0.7-3,1.5-4.3
		c1.1-1.7,1.2-2.2,1.2-4.9c0-2.3,0.2-3.6,0.9-5.2c0.8-2,0.9-2.2,0.3-3.2c-0.8-1.5-0.5-1.6,1.1-0.4c0.7,0.6,2,1.3,2.9,1.7
		c1.4,0.7,1.6,0.7,2.2,0.1c1.4-1.3,0.5-3.4-2.7-6.7c-1.4-1.4-2.3-2-3.8-2.3c-2.8-0.7-7.4-1.2-10.5-1.2c-2.5,0-2.9-0.1-4.6-1.4
		c-2-1.4-3.6-3.8-3.4-4.9c0.2-0.8-1.1-3.5-2.1-4.2c-0.4-0.3-1.8-1.2-3.2-1.9c-2.3-1.2-2.6-1.5-3-2.9c-0.6-2.3-0.8-2.5-3.1-2.5
		c-1.1,0-2.8-0.3-3.8-0.6c-1.8-0.6-3.4-0.3-3.4,0.6c0,0.8-0.2,1-2.9,3.2c-3.1,2.5-2.9,2.5-9,1.7c-4.1-0.5-5.2-0.9-9.2-3.2
		c-0.5-0.3-1.7-0.5-2.7-0.5c-1,0-2.8-0.4-4-0.8c-1.9-0.7-2.2-0.9-2.4-2.2c-0.1-0.7-0.7-1.9-1.2-2.5l-1-1.2l0.6-11.9
		c0.7-13.7,0.3-12.5,5.5-18c1.6-1.7,7.3-8.1,12.8-14.3c5.5-6.2,10.1-11.3,10.3-11.3c0.2,0,1.5,1.1,2.9,2.4c2.3,2.1,8,5.4,9.4,5.4
		c0.3,0,1.3,0.6,2.3,1.4l1.9,1.4l5.2,0.3c2.9,0.2,5.7,0.5,6.4,0.7c1.1,0.4,1.1,0.5,0.9,3c-0.2,1.9,0.1,3.9,0.9,7.7
		c1.2,5.8,1.6,6.6,5.7,11c1.3,1.4,2.8,3.3,3.2,4.2c0.8,1.6,0.9,1.6,2.6,1.6c1,0,1.7,0.1,1.7,0.2c0,0.1,0.5,4.7,1.2,10.2
		c2.3,19.4,2.7,21.2,4.8,23.2c1.7,1.6,3,2.2,6.9,3.2c3.8,1,6.6,2.3,7.3,3.5c0.5,0.8,0.7,0.8,2.6,0.6c1.1-0.1,3.3-0.7,4.8-1.2
		c1.5-0.5,2.8-0.9,2.9-0.8c0.1,0.1,0.2,0.6,0.2,1.2c0.1,0.8-1,2.1-4.9,6.4c-2.8,3-5.3,5.6-5.7,5.7c-0.4,0.1-2.3,0.6-4.2,1
		c-6.8,1.4-10.8,5.1-7,6.4c1.4,0.5,2,1.6,1.1,1.9c-3.4,0.9-4.9,1.5-5.6,1.9c-0.7,0.5-0.7,0.6-0.2,1.2c0.5,0.6,0.4,0.7-1.6,0.6
		c-3.4-0.2-3.6-0.1-6.7,2.6c-2.4,2-3.3,2.6-4.6,2.8l-1.6,0.2L230.3,352.2z"/>
	<path id="Manitoba" style="fill:#D6D6D6;" d="M159.3,301.1c-1.2-0.1-6.1-0.6-11.1-1.1c-4.9-0.5-9.2-1-9.5-1
		c-0.7,0-0.6-0.6,1.9-36.2c1.9-26.1,1.9-26.7,2.9-28.1c0.7-1.1,0.9-1.6,0.6-2.5c-0.2-0.6,0-3.3,0.4-6.7c0.4-3.1,0.8-6.5,1-7.6
		l0.3-2.1l1.6,0.2c1.7,0.2,22.1,2.4,24.2,2.6l1.3,0.1l-0.1,3.4c0,1.9,0.1,3.7,0.3,4.2c0.3,0.5,1.3,1,2.7,1.4
		c1.3,0.4,2.6,0.9,2.9,1.3c0.6,0.7,2.2,8.2,2.2,10.5c0,1.5,0,1.5,1.5,1.5c0.8,0,2.4-0.2,3.5-0.5c1.7-0.4,2.2-0.4,3.4,0.2
		c0.8,0.4,2.3,0.8,3.3,1.1c1,0.2,1.9,0.6,2,0.7c0.2,0.4-8.2,10.2-21,24.4c-6.7,7.5-6.3,6.2-6.9,18.8c-0.3,5.8-0.7,11.7-0.8,13
		l-0.2,2.4l-2.2-0.1C162.4,301.2,160.4,301.1,159.3,301.1L159.3,301.1z M153.2,290.5c0-0.7-0.3-2.6-0.7-4.1
		c-0.4-1.5-0.8-3.1-0.9-3.7c-0.1-0.5-1-1.7-1.9-2.7l-1.7-1.7l0.1-3.7c0.1-3.3,0.2-3.7,0.8-3.9c0.9-0.2,2.6,0.7,2.6,1.3
		c0,0.3,0.7,1.9,1.6,3.6c1.5,3,1.6,3.1,2.9,3.1c1.8,0,2.3,0.8,2,2.9c-0.2,1.4-0.1,1.7,0.3,1.7c0.3,0,0.7-0.2,0.8-0.4
		c0.2-0.2,0.4-0.3,0.6-0.1c0.2,0.2-0.1,1.5-0.6,3.2c-1.5,4.4-0.8,5.7,2,3.6c1.4-1,1.4-1.1,1.1-3.3c-0.1-1.2-0.6-3.2-1-4.4
		c-0.4-1.2-0.9-3.3-1.2-4.8c-1-5.7-3.3-11.5-5-12.4c-1.7-0.9-3.7,0.1-5,2.6l-0.7,1.4l-1.1-1.4c-1.4-1.8-2.3-2.3-3.4-1.8
		c-0.6,0.3-0.7,0.7-0.5,1.7c0.2,1.1,0.1,1.4-0.6,1.7c-1.2,0.6-1,1.5,0.6,3c1.3,1.2,1.4,1.4,1.2,3.2c-0.1,1-0.3,2.4-0.5,3.1
		c-0.2,1.1-0.1,1.3,1.9,2.9c2.3,1.7,2.3,1.8,3.5,7.2c0.8,3.7,0.9,3.8,1.8,3.6C153.1,291.8,153.2,291.6,153.2,290.5L153.2,290.5z"/>
	<path id="Saskatchewan" style="fill:#D6D6D6;" d="M130.2,298c-6.8-0.8-10.9-1.6-22.1-4c-10.1-2.2-11.6-2.6-11.6-3
		c0-0.4,17.5-73.3,17.7-73.4c0.4-0.4,10,0.1,11.6,0.6c1.9,0.6,2.4,0.5,1.9-0.2c-0.6-1-9.9-4.6-11.9-4.6c-0.7,0-0.8-0.2-0.6-1.2
		c0.1-0.7,0.3-1.3,0.4-1.4c0.1-0.1,6,1,13.1,2.4c7.1,1.4,13.6,2.6,14.4,2.7c0.8,0.1,1.5,0.5,1.4,0.7c0,0.3-0.4,3.6-1,7.4l-0.9,6.9
		l-1.8,1.9l-1.8,1.9l0.3,2.3c0.2,1.8,0.1,2.5-0.4,3.2c-1,1.5-0.8,2,0.5,1.3c1.3-0.7,1.3-0.7,1.2,2.1c-0.1,2.7-3.5,51.5-3.7,53.4
		C136.7,298.9,137.1,298.8,130.2,298L130.2,298z"/>
	<path id="Alberta" style="fill:#D6D6D6;" d="M87.6,289.1c-10-2.7-9.9-2.7-10.9-4.5c-0.8-1.5-0.8-1.6-0.2-4.9c0.6-3.1,0.6-3.5,0-4.8
		c-1.1-2.6-5.3-11.8-7.4-16.2c-1.1-2.3-2.4-5.2-2.7-6.4c-0.4-1.4-1.2-2.8-2.2-3.9l-1.5-1.8l0.6-2.7c0.3-1.5,1.3-4.7,2.1-7.1
		c2.3-6.9,13.2-37,13.5-37.2c0.1-0.1,4.1,1.1,8.8,2.6c4.7,1.5,12.6,3.9,17.5,5.4c4.9,1.4,9,2.6,9.1,2.7c0.1,0.1-0.1,1.1-0.5,2.2
		c-0.4,1.3-0.9,2.2-1.3,2.4c-1.1,0.3-4.1,3.6-3.8,4.1c0.5,0.9,1.9,1.1,2.8,0.5c0.8-0.5,0.9-0.5,0.7,0.3c-0.1,0.5-4,16.6-8.5,35.9
		c-4.6,19.2-8.4,35.1-8.4,35.2C95.2,291.1,95.2,291.1,87.6,289.1z"/>
	<g id="BritishColumbia">
		<path id="VancouverIsland" style="fill:#D6D6D6;" d="M30.7,275c-1.3-0.9-3.8-4-4.3-5.4c-0.2-0.5-0.7-1.3-1.2-1.7
			c-0.5-0.4-0.9-0.9-0.9-1.2c0-0.3-1.2-2.9-2.7-5.9c-2.4-4.8-3.9-8.9-3.9-10.2c0-0.2,0.4-0.6,1-0.9c0.9-0.4,1.1-0.3,2.9,1.5
			c2.2,2.2,6.6,7.3,7.2,8.5c0.2,0.4,0.6,1.8,0.9,3.1c0.3,1.4,1.1,3.3,1.9,4.7c0.9,1.4,1.7,3.3,1.9,4.7c0.3,1.3,0.5,2.6,0.7,3
			C34.5,276,32.2,276,30.7,275z"/>
		<path id="BritishColumbiaCordillera" style="fill:#D6D6D6;" d="M66.9,283.1c-8.1-2.8-26.7-9.7-29.4-10.9c-1.1-0.5-1.6-1-1.6-1.5
			c0-0.4-0.6-1.5-1.3-2.4c-2.3-3-3.3-4.8-4-6.5c-0.4-1-1.4-2.9-2.4-4.3c-0.9-1.4-1.7-2.9-1.7-3.4c0-0.5-0.7-1.4-1.7-2.2l-1.7-1.4
			v-3.8c0-2.9,0.2-4.1,0.6-4.8c0.8-1.2,0.5-2.9-0.9-6.1c-0.9-2-1-2.4-0.5-3.8c0.4-1.2,0.4-1.9,0-3.2c-0.3-0.9-0.5-3.2-0.5-5.1
			c0-3.8-0.3-3.3,3.6-6.2c2-1.5,5-6.6,5-8.7c0-0.8-0.7-2.6-1.8-4.7c-1.6-3.1-1.8-3.6-1.7-5.7c0.3-5.4,0.1-13.4-0.4-16.1
			c-1.4-8-2.6-10.9-4.6-10.9c-0.5,0-2,0.6-3.3,1.3c-1.3,0.7-2.8,1.4-3.3,1.6c-0.8,0.2-0.9,0.2-0.9-2.1c0-1.3-0.2-3.2-0.4-4.3
			c-0.2-1.1-0.3-2.1-0.1-2.3c0.2-0.2,5,2.6,10.8,6.1c12,7.4,22.6,13.4,29.8,17.1c4.5,2.3,19.7,9,21.9,9.6c0.5,0.1,0.9,0.4,0.9,0.6
			c0,0.2-2.5,7.4-5.6,16.2c-6.9,19.2-9.7,27.7-10.1,29.9c-0.2,1.5-0.1,1.8,1.2,3.6c0.8,1.1,1.9,3.2,2.5,4.6c0.6,1.5,3.1,7,5.6,12.4
			l4.5,9.7l-0.1,5.2c-0.1,3.2-0.3,5.2-0.5,5.2C74.7,285.8,71.1,284.6,66.9,283.1L66.9,283.1z"/>
		<path id="QueenCharlottes" style="fill:#D6D6D6;" d="M11,232.6c-1-2.2-1.4-4.6-1.4-9c0-4.3,0.5-7.2,1.2-7.2c0.7,0,2.5,1.1,3.6,2.3
			c1.3,1.3,1.4,1-1.6,4.7c-0.9,1.1-1.8,2.5-1.9,3.1c-0.1,0.6,0,2.4,0.4,4.1c0.4,1.7,0.6,3.1,0.5,3.2C11.6,233.8,11.3,233.3,11,232.6
			L11,232.6z"/>
	</g>
	<path id="Yukon" style="fill:#D6D6D6;" d="M52,186c-12.9-6.8-36.5-21.4-37.1-22.9c-0.2-0.6,0.2-1.8,0.9-2.6
		c1.3-1.4,1.2-1.5-1.8-2.8c-1.8-0.7-3.2-1.7-3.2-2.2c0-0.5,8.9-14.2,19.8-30.4c13.2-19.6,20.3-29.4,21.1-29.4c0.9,0,1.8,1.4,2.9,4.4
		c0.9,2.4,2,4.9,2.5,5.5c0.8,1,0.5,1.9-1.6,5.4c-1.4,2.3-3.1,5.7-3.7,7.6l-1.1,3.3l2.6,2.2l2.6,2.2l-1.3,3.7c-1.1,3.3-1.1,3.8-0.1,5
		c1.5,1.6,1.5,3.8,0.1,4.3c-2.3,0.9-3,4.4-1.6,8.3c1.6,4.6,1.7,8.8,0.5,15.3c-0.9,4.7-0.8,5.3,0.8,8.5c1.2,2.4,1.7,4.7,1.6,7.4
		l-0.1,4l3.8,1.8c3.5,1.6,3.8,2,3.8,4.4c0,1.4-0.3,2.6-0.6,2.6C62.6,191.5,57.7,189,52,186z"/>
	<g id="Nunavut">
		<path id="Keewatin" style="fill:#D6D6D6;" d="M168.5,217.4c-1.4-0.2-6.9-0.9-12.3-1.5c-5.4-0.6-9.9-1.2-10-1.3
			c-0.1-0.1,0.5-8.2,1.5-17.9c1.1-11.1,1.5-17.8,1.3-18c-0.2-0.2-4.6-2.6-9.9-5.4l-9.5-5l-2.1-3.1c-2.2-3.2-2.1-3.2-6.3-4l-2.2-0.4
			l-7.5-10.4c-4.1-5.7-8.2-11.2-8.9-12.3l-1.4-2l1.8-5c1-2.7,1.9-5.2,2.1-5.4c0.2-0.2,1.6,0.9,3.8,3.2c3.2,3.3,4.9,4.4,5.9,3.8
			c0.7-0.4,3.1,1.7,4.1,3.7c1.5,2.9,1.3,3.3-1.4,4c-2.6,0.7-3,1.5-1.6,2.9c1.8,1.8,9.2,3.1,12.7,2.2c1.2-0.3,1.3-0.3,3.8,3.3
			c1.8,2.5,2.6,4,2.6,4.8c0,1,0.1,1.1,0.4,0.4c0.3-0.4,0.3-1.6,0.2-3.2l-0.3-2.4l2.9-1.6c4-2.2,4.5-3,1-1.8c-2.2,0.8-3.3,0.7-4-0.2
			c-0.7-1-0.4-2.2,0.7-2.9c1-0.6,6.7-1.8,7.5-1.5c0.3,0.1,0.8,1.2,1.1,2.3c0.7,2.5,2.9,4.9,4.7,5.3c0.8,0.2,1.6,0.8,2.4,2
			c1.4,1.9,2.1,2.2,5.8,2.2c1.2,0,3.2,0.2,4.4,0.5c2.5,0.6,2.2,0.9,3-2.9l0.5-2.2l1.8,0.3c2,0.4,5.9,2.1,5.9,2.5
			c0,0.2-0.3,1.5-0.7,2.9c-0.7,2.6-0.7,2.6,0.2,3.5c0.5,0.5,0.9,1.2,0.9,1.5c0,0.4,0.1,0.4,0.4-0.1c0.3-0.5,0.3-1.1,0-1.9
			c-0.2-0.7-0.4-2-0.4-3v-1.8l1.6-0.3c1.1-0.2,2-0.7,2.9-1.6c1.3-1.3,1.3-1.4,1.1-3.4c-0.1-1.1-0.3-3-0.5-4.1
			c-0.2-2.1-0.6-2.6-3.2-4.1c-2-1.1-2.8-2.9-2.6-5.5c0.1-1.5,0-2.8-0.4-3.9c-0.8-2.1-0.4-3.5,1.3-5.1c0.7-0.7,1.3-1.5,1.2-1.8
			c-0.1-0.6,1.9-3.6,2.7-3.9c0.8-0.3,1.3,0.1,3.5,2.6c1.8,2,1.9,2.4,2.2,4.8c0.2,1.9,0.7,3.4,1.6,5.2c1.5,2.9,1.7,3.9,0.6,3.8
			c-0.5-0.1-0.7,0.3-0.9,1.8c-0.3,2.2,0.4,3.1,1.9,2.7c1-0.3,4.7,0.8,4.7,1.4c0,0.2-0.6,0.5-1.4,0.6c-0.8,0.1-1.5,0.5-1.6,0.8
			c-0.1,0.3,0.2,1.4,0.8,2.4c0.6,1,1,2.4,1,3.1c0,1.8,0.7,1.5,1-0.4c0.6-4.2,1.8-5.7,3.4-4.3c3,2.7,4.3,5.9,3.2,8
			c-0.4,0.8-0.5,1.6-0.4,2.4c0.3,1.5,2.5,4.9,3.1,4.9c0.9,0,1.7-1.3,2.1-3.6c0.6-2.9,2-7,3-8.9c0.8-1.5,0.8-1.5,0.1-3
			c-1-2-1.3-4.3-0.8-5.4c1-1.9,6.1-0.5,10.4,2.8c2.8,2.1,2.9,2.2,2.4,2.9c-0.2,0.3-0.1,1.1,0.2,1.8c0.7,1.7,0.7,2.4-0.1,2.7
			c-0.4,0.1-1.1,0.6-1.6,1l-0.9,0.8l1,2.1c0.6,1.2,1.5,2.5,2,3c1.4,1.4,1.3,3.7-0.4,7c-1.4,2.7-2.6,4.3-3.3,4.3
			c-0.2,0-1-0.2-1.7-0.6l-1.3-0.6l0.4,1c0.2,0.5,0.3,1,0.3,1.1c-0.1,0-1,0.2-2.1,0.3c-1.6,0.2-2.2,0.1-3-0.5c-1-0.8-2.8-1-3.7-0.4
			c-0.5,0.3-0.4,0.5,0.3,1.3c1.3,1.4,1.1,2.6-1.1,5.7c-1.8,2.6-1.9,2.9-1.4,3.5c0.3,0.4,0.6,1.1,0.6,1.6c0,1-3.9,7.9-4.8,8.4
			c-0.3,0.2-1.5,0.5-2.8,0.7c-2.1,0.3-2.4,0.5-2.9,1.6c-0.5,1.2-0.7,1.3-2.7,1.3l-2.1,0l1.1,0.9c0.9,0.7,1.1,1.2,1.1,2.7
			c0,2.2-0.6,2.7-3.1,3c-1.6,0.2-1.9,0.3-1.8,0.9c0.1,0.4-0.5,1.5-1.3,2.4c-4.2,5.1-8.8,14.1-8.8,17.3
			C173.2,218.1,173,218.1,168.5,217.4L168.5,217.4z"/>
		<path id="Southampton" style="fill:#D6D6D6;" d="M206.8,192.4c-0.1-0.1-0.3-0.7-0.3-1.3c0-1.4-0.7-2-2.4-2c-2.9,0-3.2-0.6-1.8-2.7
			c0.8-1.2,0.9-2,1.1-6.2c0.1-2.7,0.5-6,0.9-7.5c0.6-2.5,0.7-2.6,1.8-2.6c0.9,0,1.3,0.3,2,1.6c0.6,1.1,1.4,1.9,2.8,2.5
			c1.1,0.5,3.3,1.9,5,3.1c2.6,1.8,3.2,2.5,4,4.3c0.9,2.1,0.9,2.1,2.6,2.1c2.7,0,3.9,1.9,2.3,3.9c-0.7,0.9-1.4,1-3.8,0.6
			c-3-0.5-3.2-0.6-3.7-1.7c-0.5-1.1-2.4-2.3-3.1-1.8c-0.2,0.1-0.5,0.8-0.6,1.5c-0.3,1.2-1.5,3-3.8,5.4
			C208.9,192.6,207.4,193,206.8,192.4L206.8,192.4z"/>
		<path id="Coats" style="fill:#D6D6D6;" d="M213.4,198.7c-0.4-1.1,0.5-3.6,1.6-4.4c1.5-1.1,5-1.1,5.4,0c0.3,0.9-0.9,2.8-2.4,4
			C216.5,199.3,213.7,199.6,213.4,198.7z"/>
		<path id="Mansel" style="fill:#D6D6D6;" d="M227.7,201.7c-1.8-2,0.5-6.5,2.4-4.6c1,1,0,5.4-1.2,5.4
			C228.6,202.4,228.1,202.1,227.7,201.7z"/>
		<path id="Nottingham" style="fill:#D6D6D6;" d="M233.8,189.7c-1.1-0.7-1.2-2.1-0.2-2.1c0.9,0,2.2,1.4,1.9,2.1
			C235.2,190.5,234.9,190.5,233.8,189.7L233.8,189.7z"/>
		<path id="Salisbury" style="fill:#D6D6D6;" d="M236.4,185.9c0-0.8,0.6-1.1,1.6-0.8c1.2,0.4,0.9,1.4-0.4,1.4
			C236.8,186.5,236.4,186.3,236.4,185.9z"/>
		<path id="Baffin" style="fill:#D6D6D6;" d="M269.3,190.4c-2-0.2-2.9-0.5-3.8-1.3c-0.8-0.7-1.7-1-2.5-1c-1.5,0-5.3-1.3-6.8-2.4
			c-1.1-0.8-1.7-2.1-1.1-2.5c0.7-0.4,0.3-0.9-2.1-2.2c-1.3-0.7-2.8-1.7-3.2-2.2c-1.7-1.9-4.3-2.5-5.8-1.3c-0.4,0.3-1.2,0.6-1.7,0.6
			s-1.6,0.5-2.5,1.2c-1.5,1.2-1.6,1.2-4.1,1c-3.2-0.3-3.9-0.9-4.2-3.5c-0.2-1.6-0.1-2,0.6-2.7c0.5-0.4,0.8-1.2,0.8-1.8
			c0-1.3,0.3-1.4,4.7-1.6c2.2-0.1,3.4-0.4,4.8-1.2c1-0.6,2.2-1,2.5-1c1,0,0.2-2.2-1.1-3.4c-0.6-0.5-1.2-1.3-1.2-1.7
			c0-0.4,0.9-2.5,2-4.7c1.9-3.9,2-4.1,1.5-5.6c-0.8-2.6-2.1-4.6-5.6-8.1c-1.8-1.9-3.3-3.5-3.3-3.7c0-0.6-0.9-0.4-2.8,0.6
			c-1,0.5-1.9,1-2,1c-0.5,0-0.1-1.9,0.6-2.5c0.4-0.4,0.8-0.8,0.8-1c0-0.6-1.8-0.8-2.7-0.3c-1,0.6-1.7-0.1-1.1-1.2
			c0.6-1.1,0.4-1.4-2-3.4c-2.5-2-3.1-2.2-3.1-0.6v0.9h-4.6c-2.8,0-4.7,0.2-4.9,0.4c-0.3,0.6-12.9,0.2-13.6-0.4
			c-0.3-0.2-0.6-0.8-0.8-1.2c-0.2-0.6-0.6-0.7-2.7-0.7c-2.3,0-2.5-0.1-3.8-1.5c-2.9-3.1-2.9-4.4,0-4.4c1.1,0,2-0.2,2.1-0.3
			c0.3-0.4-1.3-1.1-3.4-1.4c-1.3-0.2-1.5-0.4-1.9-1.9c-1.5-5.4,1.8-18.3,5.5-21.3c1.6-1.3,4.1-1.7,6-0.9c1.6,0.7,1.8,1.4,0.6,3
			c-1.1,1.6-2.7,6.4-2.7,8.3c0,2.4,0.5,4.6,1,4.8c0.3,0.1,0.8-0.5,1.2-1.3c0.7-1.3,0.7-1.6,0.2-2.5c-0.8-1.5-0.7-4,0.2-4.9
			c0.4-0.4,1.1-1.4,1.5-2.3c1.5-3.3,3.6-4.9,6.8-4.9c1,0,1.3,0.3,2.4,2.1c1.4,2.3,2.8,5.8,2.8,6.8c0,1,1.2,2,2.4,2
			c1.2,0,1.8-0.4,2.2-1.6c0.4-1.1,2.5-2.3,4-2.3c2,0,4.6,1.2,5.6,2.7c0.6,0.8,1.4,1.6,1.7,1.9c0.4,0.3,0.7,0.8,0.7,1.1
			c0,0.5,3.4,4,3.9,4c0.1,0,0.4-0.5,0.7-1.2c0.4-1.1,0.5-1.2,1.9-1c1,0.2,1.7,0.6,2.4,1.5c0.5,0.7,1.7,2,2.6,3
			c1.6,1.7,1.7,1.8,2.9,1.3c1.1-0.4,1.4-0.4,2.5,0.3c1.4,0.8,1.4,0.9,1.3,3.1l-0.1,1.4l1-0.9c0.7-0.6,1.2-0.8,1.8-0.6
			c1.1,0.3,3,3,3.3,4.6c0.1,0.8,0.6,1.5,1.1,1.8c0.5,0.3,1.1,0.8,1.3,1.2c0.4,0.6,0.3,0.8-0.7,1.3c-0.6,0.3-1.5,0.6-1.8,0.6
			c-0.6,0-0.7,0.4-0.8,2.4l-0.1,2.4l3.2,1.5c2.5,1.2,3.8,1.6,6.1,1.8c2.7,0.2,3,0.3,4.5,1.7c1.2,1,2,1.5,2.8,1.5
			c0.9,0,1.3,0.2,1.6,1c0.5,1.1,0.5,1.1,2.9,0.5c1.4-0.3,2-0.3,2.7,0.1c0.8,0.4,0.9,0.8,0.9,2.5c0,1.1-0.2,2.3-0.6,2.8
			c-0.3,0.5-0.4,0.9-0.2,1.1c0.5,0.3,0,4.2-0.7,5c-0.3,0.4-0.8,0.7-1.1,0.7c-0.8,0-0.6,0.7,0.5,2.6l1,1.7l-1,0.6
			c-0.9,0.6-1.1,0.6-3.5-0.2c-2-0.7-2.7-1.2-4-2.8c-1.4-1.8-5.3-4.6-6.4-4.6c-0.3,0-0.9,0.3-1.4,0.6l-0.9,0.6l0.8,1.1
			c0.8,1.1,0.8,1.2,0.2,1.9c-0.9,1-0.8,1.5,0.5,2c0.6,0.3,1.8,1.2,2.7,2.1c1.1,1.2,2.1,1.9,3.7,2.4c1.2,0.4,2.2,0.8,2.2,1
			c0,0.2,1.6,2.1,3.5,4.2l3.5,3.9l-0.2,3.7c-0.1,2-0.3,3.8-0.4,3.9c-0.3,0.3-8.1-2.5-10.2-3.7c-1.8-1-4.4-1.6-4.4-1
			c0,0.7,3.2,3.2,5.2,4.2c1.3,0.6,3.5,1.8,5,2.7c2.6,1.6,2.6,1.6,2.6,3.3v1.7l-3.2-0.1C273.3,190.6,270.7,190.5,269.3,190.4
			L269.3,190.4z"/>
		<path id="AirForce" style="fill:#D6D6D6;" d="M239.5,149.2c-0.9-0.9-0.8-1.6,0.4-1.6c1.2,0,1.9,0.4,1.9,1.2c0,0.4-0.1,0.7-0.2,0.7
			c-0.1,0-0.4,0.1-0.7,0.2C240.6,150,240,149.7,239.5,149.2L239.5,149.2z"/>
		<path id="PrinceCharles" style="fill:#D6D6D6;" d="M232.5,155.1c-1-1-1.3-2.3-1.1-4.9c0.2-2.7,1.3-4.2,3-4.4
			c0.9-0.1,1.5,0.1,2.2,0.9c0.9,0.9,1,1.3,1,3.7c0,3.3-0.4,4.1-2.2,4.9C233.7,156,233.4,156,232.5,155.1L232.5,155.1z"/>
		<path id="Rowley" style="fill:#D6D6D6;" d="M223.2,141.9c0-0.2,0.2-0.5,0.4-0.6c0.2-0.1,0.7-1.3,1-2.5c0.4-1.3,0.8-2.3,1-2.3
			c0.5,0,0,3.3-0.6,4.5C224.4,142.1,223.2,142.7,223.2,141.9z"/>
		<path id="NunavutVictoria" style="fill:#D6D6D6;" d="M150.1,142.7c-2.7-1.5-6.8-4.4-7-5c-0.3-0.8-1.3-1-1.6-0.2
			c-0.2,0.6-1.6,1.2-3.6,1.6c-0.7,0.1-2,0.5-2.7,0.9c-1.1,0.5-2.3,0.6-6.5,0.4c-7-0.3-7-0.3-7.3-3.8c-0.3-3.5-0.6-4.1-2.5-4.7
			c-1.9-0.6-4.2-2.3-4.7-3.3c-0.4-0.9-1.4-5.2-1.2-5.4c0.1-0.1,4.8,1.2,10.4,2.9c7.1,2.1,10.4,2.9,10.5,2.6
			c0.1-0.2,1.6-5.9,3.3-12.6c1.7-6.7,3.2-12.1,3.3-12.1c0.7,0,1.9,4.4,1.9,7.1c0,3.3,0.5,4.4,1.4,3.2c0.5-0.7,0.6-1.6,0.4-6.2
			c-0.2-4.7-0.2-5.5,0.4-6.1c0.8-0.9,2.4-0.9,3.5-0.2c0.8,0.6,0.8,0.6,0.4-0.8c-0.3-1.1-0.3-1.5,0.3-2.1c1.1-1.2,3.3-1,4.6,0.3
			c1.5,1.6,1.4,2.9-0.6,5.5l-1.6,2.1l0.3,4.4c0.1,2.4,0.4,5.2,0.6,6.2c0.3,1.4,0.3,2.2-0.2,3.7c-0.6,1.8-0.6,2,0.2,3.6
			c0.4,0.9,1.9,2.8,3.3,4.1c3.6,3.4,4.1,4.2,4.1,6v1.6l-1.7-0.2c-0.9-0.1-2-0.3-2.3-0.5c-0.9-0.3-0.9,0.6,0.1,2.5c1,2,1,2.9-0.2,4.1
			c-0.8,0.8-1.3,0.9-2.8,0.9C151.7,143.1,150.5,142.9,150.1,142.7L150.1,142.7z"/>
		<path id="NunavutMelville" style="fill:#D6D6D6;" d="M148.3,86c-0.5-0.2-1.5-0.3-2.3-0.2c-1.3,0.2-1.3,0.2-1-1
			c0.1-0.7,0.6-2.4,1-3.8c0.4-1.4,1-4.1,1.3-6c1-6.1,1.7-7.6,3.1-6.4c0.4,0.3,0.5,1.4,0.4,4.6l-0.2,4.1l1.9-0.2
			c1.7-0.2,2-0.1,2.5,0.6c0.3,0.5,0.6,1.7,0.6,2.7C155.7,84.8,152.1,87.6,148.3,86L148.3,86z"/>
		<path id="ByamMartin" style="fill:#D6D6D6;" d="M156.2,85.9c-0.3-0.9,0.6-2.2,1.6-2.2c0.7,0,1,0.3,1.3,1.1
			c0.2,0.6,0.3,1.2,0.2,1.4C158.8,86.7,156.4,86.5,156.2,85.9L156.2,85.9z"/>
		<path id="Lougheed" style="fill:#D6D6D6;" d="M158.3,66.4c-0.7-0.7-0.8-1.6-0.4-3.1c0.4-1.6,1.5-0.9,2.2,1.5
			c0.2,0.7-0.3,2.3-0.8,2.3C159.1,67.1,158.6,66.8,158.3,66.4L158.3,66.4z"/>
		<path id="NunavutBorden" style="fill:#D6D6D6;" d="M151.6,53.8c0-0.2,0.5-2.5,0.6-2.8c0.2-0.5,0.3-0.3,0.3,0.4
			c0,0.8-0.3,1.7-0.5,2.1C151.8,53.9,151.6,54,151.6,53.8L151.6,53.8z"/>
		<path id="EllefRingnes" style="fill:#D6D6D6;" d="M169.9,60.2c-2.1-2.2-2.6-2.7-3.3-3.1c-0.6-0.3-0.7-0.3-2.1-0.4
			c-1.2,0-1.5-0.1-1.8-0.3c-0.4-0.3-1-0.9-1.2-1.3c-0.5-1-0.1-2.4,0.7-2.6c0.5-0.1,1.1-0.6,1.3-1c0.3-0.7-0.2-1.9-1.1-2.9
			c-0.8-0.9-1.1-1.4-1.1-2.1c0-1,0.6-1.7,1.7-1.9c1.3-0.2,3.1,0.8,3.3,1.9c0.1,0.5,0.4,0.9,0.9,1c0.8,0.2,1.9,1.1,2.6,2.3
			c0.7,1.2,1.2,1.9,1.7,2.5c0.6,0.8,0.6,1,0.3,2.4c-0.4,1.4-0.4,1.8,0.1,2.3c0.8,1.1,1.3,1.8,1.3,2.1c0,0.6-0.8,1.8-1.3,2
			C171.1,61.6,171.1,61.5,169.9,60.2z"/>
		<path id="AmundRingnes" style="fill:#D6D6D6;" d="M176.8,61.6c-1-0.4-1.3-0.9-1.4-2l0-0.7l-0.6-0.8c-1.1-1.5-1.1-1.4-1.1-2.9
			c0-1.2,0-1.4,0.2-1.8c0.3-0.6,0.6-1,1.1-1.1c0.6-0.2,0.8,0,3.8,1.8l1.4,0.8l0.2,0.6c0.2,0.7,0.4,2.5,0.3,3.6l0,0.9l-1,0.8
			C178.1,61.9,177.8,62,176.8,61.6L176.8,61.6z"/>
		<path id="Cornwall" style="fill:#D6D6D6;" d="M180,66.6c-0.5-0.1-1.5-0.6-1.9-1c-1-0.8-0.9-1.6,0.1-2.6c1.3-1.3,3-1.4,4.5-0.3
			c0.9,0.6,1.1,1.4,0.8,2.2c-0.2,0.5-1,1.3-1.6,1.5C181.5,66.6,180.6,66.7,180,66.6z"/>
		<path id="Bathurst" style="fill:#D6D6D6;" d="M170.3,88.3c-0.8-0.2-1.5-0.5-2-0.8c-1.1-0.8-1.9-1.7-1.9-2.3c0-0.4,0.3-0.8,1.1-1.5
			l0.7-0.6h-2.5c-2.5,0-2.6,0-2.9-0.2c-0.4-0.3-0.5-0.5-0.6-1.7c-0.1-1.4-0.3-1.7-2.2-3c-1.4-0.9-1.3-0.8-0.7-1.8
			c0.4-0.7,0.5-0.7,1.4-0.7c1.4,0.1,2.6,0.6,2.6,1c0,0.4,1.9,2.5,2.6,2.8c0.3,0.1,0.6,0.2,0.9,0.2c0.7,0,0.8-0.2,0.8-1.3
			c0-0.7,0-0.8-0.3-1.1c-0.2-0.2-0.5-0.5-0.8-0.7c-1-0.7-1.5-1.1-1.5-1.3c0-0.2,1.1-1.3,2.1-2l0.7-0.5l0.9,0c1.1,0,2.9,0.2,3.6,0.5
			c0.3,0.1,0.7,0.3,1,0.4l0.5,0.3l-0.1,2.3c-0.2,5.4-0.3,7.9-0.6,8.7c-0.1,0.3-0.1,0.7-0.1,1.5c0.1,1.1,0.1,1.1-0.2,1.4
			C172.3,88.5,171.5,88.6,170.3,88.3L170.3,88.3z"/>
		<path id="Ellesmere" style="fill:#D6D6D6;" d="M211.3,77.4c-0.2-0.2-0.2-0.5-0.1-0.8c0.1-0.4,0-0.6-0.2-0.8
			c-0.3-0.3-1.3-0.9-1.6-0.9c-0.1,0-0.4,0.2-0.8,0.5c-0.7,0.6-0.9,0.6-2.1,0.3c-0.6-0.2-1.1-0.4-1.6-0.8c-1-0.8-1-0.8-1.3-0.5
			c-0.2,0.2-0.4,0.5-0.4,1c-0.1,0.4-0.2,0.8-0.5,1l-0.4,0.4l-1.4-0.1c-0.8-0.1-2.7-0.1-4.3-0.2c-3.1-0.1-3.6-0.2-4.2-0.8
			c-0.2-0.2-0.4-0.5-0.4-0.6c-0.2-0.5-0.2-2.9,0.1-3.4c0.6-1.4,2.2-3,3.2-3.1c1.2-0.2,1.2-0.6,0.1-1.9c-1-1.2-1.3-1.7-1.3-2.7
			c0-0.6,0-0.9,0.2-1.3c0.5-1,0.7-1.1,2.2-1.1c1.2,0,1.4,0,2,0.4c0.7,0.4,1,0.8,1.5,2c0.4,1,1,1.8,1.5,2.1c0.3,0.2,0.4,0.2,0.7,0
			c0.2-0.1,0.4-0.3,0.4-0.3c0-0.1-0.4-0.6-0.9-1.2c-1.2-1.4-1.7-2.1-1.8-2.7c-0.1-0.4,0-0.6,0.6-1.4c0.3-0.5,0.6-0.9,0.6-0.9
			c0,0-0.9-0.1-1.9-0.1c-2.2-0.1-2.7-0.2-3-1c-0.3-0.6-0.1-1.4,0.4-2.9c0.3-0.7,0.4-1.3,0.4-1.5c-0.1-0.5,1.3-1.7,3-2.6l1.4-0.7
			l1.9,1c1,0.5,2,1,2.1,1c0.1,0,0.2-0.2,0.3-0.5c0-0.3,0.1-0.6,0.2-0.8c0.1-0.3,0-0.3-0.7-0.4c-1.1-0.1-1.3-0.3-2.1-1.1
			c-0.9-0.9-1.5-1.7-2.2-3.4c-0.7-1.7-2.2-3.9-2.9-4.4c-0.7-0.5-0.9-1.1-0.8-3c0.1-1.9,0.2-2.5,0.7-2.9c0.3-0.3,0.5-0.3,1.4-0.2
			c1.9,0.1,2.4,0.5,4.2,2.7c1.4,1.8,2.1,2.6,2.3,2.6c0.4,0-0.4-1.7-1.3-2.9c-1.5-2.1-1.5-2.2,1.3-3.9c1.1-0.7,2.3-1.3,2.6-1.4
			c0.4-0.1,0.5-0.2,0.7-0.7c0.1-0.4,0.5-0.9,1.2-1.7l1.1-1.1l-0.5-0.7c-0.3-0.4-0.6-0.9-0.7-1.1c-0.1-0.2-0.2-0.4-0.3-0.4
			c-0.1,0-0.4,0.5-0.8,1.2c-1.8,3.2-2.7,4.1-5.1,4.3c-0.7,0.1-2,0.3-3,0.4c-1.4,0.2-1.8,0.3-2.2,0.1c-0.9-0.3-1.2-1.3-0.7-2.9
			c0.1-0.4,0.2-0.9,0.3-1.2l0.1-0.4l-0.4,0.4c-0.2,0.2-0.6,0.8-0.9,1.3c-0.8,1.6-1.6,1.9-3.1,1.1c-1.3-0.7-2-1.7-1.7-2.4
			c0.2-0.5,0.2-0.6-0.4-0.6c-0.3,0-0.7-0.1-0.8-0.1c-0.3-0.2-0.7-1.1-0.7-1.7c0-0.8,0.2-1.1,1.2-2.2c1-1,1.1-1.3,0.7-1.3
			c-0.1,0-0.6-0.2-1.1-0.5c-0.6-0.4-1-0.6-1.5-0.6c-0.7-0.1-1.3-0.5-1.3-1c0-0.4,0.5-1.3,1-1.7c0.2-0.2,0.9-0.6,1.4-0.8
			c0.5-0.3,1.4-0.9,1.9-1.3c1.3-1.1,1.4-1.2,2.3-1.2c1,0,1.3-0.2,1.2-0.8c-0.1-0.5,0-0.6,0.7-1.3c0.5-0.5,0.8-1,0.9-1.3
			c0.2-0.7,0.4-0.9,1.3-0.9c0.6,0,0.9,0.1,1.9,0.6c1.3,0.7,1.5,0.7,1.6-0.4c0.1-0.6,0.3-1.1,0.9-2.1c0.5-0.7,1-1.7,1.1-2.1
			c0.2-0.5,0.6-1,1.2-1.7c0.9-0.9,0.9-1,1.6-1c0.7,0,1-0.2,1.2-0.8c0.1-0.2,0.3-0.5,0.6-0.7l0.5-0.4l2.1,0l2.1,0l1.4-0.6
			c1.2-0.5,1.6-0.6,2.7-0.6c0.8,0,1.4,0,1.8,0.1c0.4,0.1,0.7,0.1,2.1-0.2c1.4-0.3,1.7-0.4,2.4-0.2c0.5,0.1,1.5,0.2,2.4,0.2
			c1.9,0,2.2,0.1,2.7,0.9c0.6,1,1.2,1.4,2.5,1.7c1.5,0.4,2,1.4,2,4.1c0,1.8-0.5,3.7-1.1,4.9c-0.4,0.7-1.3,1.4-2.2,1.9
			c-0.7,0.3-2,2-2.8,3.6c-0.3,0.7-0.6,1.3-0.6,1.4c0.1,0.1,0.9-0.5,1.4-1.2c0.3-0.4,0.9-1.1,1.5-1.6c0.9-0.9,1-0.9,1.5-0.9
			c0.7,0.1,0.9,0.4,0.9,1.8c0,1.5-0.1,1.9-1.1,3.6c-0.9,1.5-1.2,2.3-1.5,3.4c-0.1,0.4-0.8,2.1-1.5,3.8c-1.4,3.3-1.9,4.9-2.2,7.5
			c-0.2,1.4-0.4,2-0.9,2.6c-0.5,0.5-1.1,0.8-1.8,0.8c-0.3,0-0.7,0.1-0.8,0.1c-0.1,0.1-0.3,0.5-0.4,0.9c-0.2,0.4-0.4,1-0.6,1.3
			c-0.4,0.5-2.3,1.5-3.1,1.6c-0.5,0.1-1.3,0.7-1.3,1c0,0.1,0.2,0.4,0.5,0.6c0.4,0.4,0.5,0.5,0.5,1.1c0,0.4-0.1,0.8-0.3,1.1
			c-0.2,0.3-0.3,0.5-0.3,0.6s0.3,0.1,0.7,0.1c1.2,0.2,1.6,0.3,2.1,0.8c1.3,1.2,1.5,3.1,0.5,3.9c-0.6,0.5-0.6,0.6,0.1,1.4
			c0.8,0.9,0.9,1.4,0.1,1.7c-0.7,0.3-0.7,0.4-0.8,1.3c-0.2,1.4-1.2,2.4-2.7,2.7l-0.7,0.1l0,2.1c0,2.3,0.1,2.1-1.3,3.8
			c-0.4,0.5-0.7,0.9-0.7,1.1c0,0.5,0.6,1.1,1.5,1.8c1.6,1.1,1.6,1.1,1.5,2.3c-0.1,1.7-0.8,3-2.1,4.4c-0.6,0.6-1.3,1.1-1.9,1.4
			C212.2,77.8,211.6,77.9,211.3,77.4L211.3,77.4z"/>
		<path id="AxelHeiberg" style="fill:#D6D6D6;" d="M187.5,58.6c-0.6-0.4-1.4-1.4-2.1-2.5c-0.3-0.5-0.8-1.2-1.1-1.6
			c-1.2-1.5-2-3.4-1.8-4.3c0.1-0.5,0.8-1.3,1.3-1.6c0.2-0.1,0.6-0.2,0.9-0.3c0.4-0.1,0.8-0.3,1.2-0.6c0.7-0.6,0.7-0.9-0.5-1.4
			c-0.8-0.4-0.8-0.4-1.8-0.2c-2.3,0.4-3.3,0.1-3.6-0.8c-0.1-0.4-0.1-0.6,0.1-1.3c0.2-0.6,0.2-0.8,0.1-0.8c-0.1,0-0.4-0.2-0.6-0.5
			c-0.6-0.5-0.8-1.3-0.6-2.5c0.2-1.1,0.5-1.7,1-1.7c1.3-0.1,1.6-0.2,1.6-0.5c0-0.4-0.3-0.9-1.1-1.7c-0.7-0.8-0.8-1.1-0.4-2.1
			c0.3-0.7,0.7-0.9,1.7-1.1c1-0.2,1.4-0.4,1.4-0.6c0-0.1-0.4-0.7-1-1.3l-1-1.1l0.3-0.7c0.4-0.9,1.1-1.6,1.7-2
			c0.5-0.3,0.8-0.9,0.8-1.7c0-1.1,1.7-1.1,3.3,0c0.6,0.4,1.3,1.7,2,3.6c0.7,1.8,0.8,2.1,2.5,4.2c1,1.2,1.4,1.8,1.4,2.3
			c0,0.6,0.4,1.2,1.4,2.5c0.6,0.7,1.1,1.3,1.2,1.5c0.1,0.2,0.2,0.7,0.2,1.3c0.1,0.9,0.1,1,0.6,1.6c0.3,0.3,1,1,1.7,1.6
			c0.6,0.5,1.2,1.2,1.4,1.4c0.4,0.6,0.3,1.9-0.1,2.8c-0.5,0.9-2.4,3.4-3.4,4.3c-0.6,0.5-0.8,0.9-1,1.4c-0.3,0.9-0.9,2-1.7,2.8
			c-0.6,0.7-0.7,0.7-1.2,0.6c-1.2-0.2-1.2-0.3-1.5,1.1c-0.1,0.4-0.4,0.5-1.7,0.5C188.2,59,187.9,58.9,187.5,58.6L187.5,58.6z"/>
		<path id="Meighen" style="fill:#D6D6D6;" d="M172.7,40.7c-0.9-0.9-1.1-1.6-0.9-2.4c0.2-0.6,1-1.1,1.6-0.9c0.5,0.1,1.1,0.8,1.6,1.8
			c0.5,1,0.4,1.3-0.3,1.9C173.9,41.6,173.5,41.5,172.7,40.7L172.7,40.7z"/>
		<path id="Devon" style="fill:#D6D6D6;" d="M189.8,94.1c-0.8-0.4-1.6-0.7-2.2-0.8c-0.6-0.1-1.1-0.3-1.3-0.4
			c-0.3-0.3-0.5-1.1-0.6-2.4c0-0.5-0.2-1.5-0.4-2.2c-0.4-1.5-0.4-3-0.1-4.1c0.3-1,0.4-2.5,0.2-3.2c-0.1-0.3-0.4-0.9-0.7-1.4
			c-0.3-0.4-0.6-1-0.7-1.2c-0.1-0.3-0.3-0.5-0.4-0.6c-0.1-0.1-1.1-0.3-2.2-0.4c-1.1-0.1-2.1-0.3-2.3-0.3c-0.4-0.2-1.8-1.7-2.8-3.1
			l-0.8-1.1l0.1-0.9c0.1-1,0.3-1.7,0.9-1.9c0.8-0.4,3.3-0.1,4.6,0.5c1,0.4,1.4,0.9,1.9,1.9c0.5,1,0.8,1.1,3,1.1c2.6,0,2.9,0.2,3.2,2
			c0.1,0.4,0.2,0.6,0.7,0.9c0.3,0.2,0.7,0.5,0.8,0.6c0.3,0.4,0.3,1.3,0,2.3c-0.3,0.9-0.2,1.1,0.6,1.9c0.6,0.7,1,1.4,1,1.7
			c0,0.4,0.6,0.6,3.8,1.2c1.8,0.3,3.2,0.6,3.3,0.6c0,0,0.7-0.3,1.5-0.6c0.8-0.4,1.7-0.8,2.1-0.9s0.9-0.5,1.4-0.9
			c1-0.8,1.3-0.9,2.2-1.1c1-0.1,3.9,0.1,4.8,0.5c1.8,0.6,4.1,2.5,4.7,3.7c0.3,0.7,0.4,1.2,0.1,1.7c-0.2,0.3-0.2,0.5,0,1.3
			c0.2,0.9,0.2,0.9-0.1,1.4c-0.2,0.3-0.4,0.9-0.5,1.3c-0.2,1.1-0.4,1.3-1.4,1.8c-1.7,0.8-4.3,1.1-5.6,0.6c-0.3-0.1-0.6-0.3-0.6-0.3
			c0,0-0.1-0.2-0.3-0.4l-0.3-0.3l-0.9,0.6c-1.9,1.3-3,1.4-8.1,1.4c-3.8-0.1-4-0.1-4.5-1.1c-0.2-0.3-0.4-0.5-0.5-0.5
			s-0.6,0.4-1.1,0.8C191.2,94.8,191.2,94.8,189.8,94.1L189.8,94.1z"/>
		<path id="Somerset" style="fill:#D6D6D6;" d="M177.7,117.2c-0.3-0.1-0.7-0.4-0.9-0.6c-0.4-0.4-0.4-0.5-0.6-1.9
			c-0.1-0.8-0.2-1.6-0.3-1.6c-0.2-0.4-0.3-2.8-0.2-4.5c0.2-2.6,0.5-4.2,1.1-6.1c0.3-0.9,0.6-1.9,0.8-2.4c0.1-0.5,0.3-0.9,0.5-1.1
			c0.4-0.4,1.2-0.7,2.4-1c1.8-0.3,2.5-0.3,3.7,0.2c0.6,0.2,1.4,0.5,2,0.6c1.4,0.3,3.8,1.6,4,2.2c0.1,0.3-0.2,0.9-0.8,1.9
			c-0.3,0.5-0.7,1.3-0.9,1.8c-0.2,0.5-0.6,1.4-0.9,1.9c-0.8,1.3-1,1.8-1.5,3.5l-0.4,1.4l-1.8,0.2c-2.2,0.3-2.5,0.4-2.6,0.6
			c0,0.1-0.2,1-0.3,2.1c-0.1,1-0.3,1.9-0.3,2c-0.2,0.3-1.2,0.7-1.8,0.8C178.5,117.4,178,117.3,177.7,117.2L177.7,117.2z"/>
		<path id="Bylot" style="fill:#D6D6D6;" d="M218.6,108.1c-0.5-0.3-1.1-1.3-2.2-3.5c-1-2.1-1.6-3.6-1.5-3.8c0.4-0.4,5-0.4,6.4,0
			c1.2,0.3,3.4,2.3,4.6,4.1c1.2,1.8,0.9,2.1-1.9,2.3c-1.5,0.1-1.8,0.1-2.8,0.6C219.8,108.4,219.1,108.4,218.6,108.1L218.6,108.1z"/>
		<path id="Cornwallis" style="fill:#D6D6D6;" d="M180,93.1c-0.9-0.3-3.6-2.2-4.4-3.1c-0.4-0.4-0.4-0.5-0.3-1.1
			c0.1-0.9,1.4-3.7,2.2-4.4c1.2-1.2,3.3-1.1,4.8,0.3c0.6,0.6,0.7,1.1,0.9,4.1c0.2,2.8,0.1,3.3-0.7,3.9
			C181.8,93.2,180.8,93.4,180,93.1L180,93.1z"/>
		<path id="PrinceOfWales" style="fill:#D6D6D6;" d="M166.3,122.9c-0.3-0.1-0.9-0.6-1.4-1.1c-0.9-0.8-0.9-0.9-1-1.7
			c-0.3-2.4-0.8-3.3-2.9-4.9c-0.9-0.6-1.7-1.7-2.3-3c-0.4-0.8-0.5-1.1-0.4-1.7c0.1-0.9,0.7-2.2,1.3-2.6c0.6-0.4,0.7-0.4,2,0.6
			c1.2,0.9,1.6,1.1,1.9,1c0.4-0.2,1-1.6,1.1-2.3c0.1-0.6,0-0.7-0.5-1.4c-0.9-1.1-1.2-1.8-1.2-2.7c0-1,0.4-2.1,0.9-2.9
			c0.7-1,0.8-1,2.6-0.1c0.8,0.4,1.6,0.7,1.7,0.7c0.1,0,0.4-0.2,0.6-0.3c0.5-0.5,2-0.9,3.1-0.9c1.2,0,1.4,0.2,1.4,1.9
			c0,1.4,0,1.5-0.5,1.7l-0.3,0.2l0.5,0.5c0.4,0.5,0.4,0.5,0.2,0.9c-0.1,0.2-0.6,0.9-1.1,1.5c-0.5,0.6-1,1.2-1.1,1.4
			c-0.2,0.3-0.1,0.4,0.8,0.9c0.6,0.3,0.7,0.4,0.8,1.2c0.1,0.5,0.4,1.3,0.7,2c0.9,1.8,1.1,4.8,0.6,6c-0.5,1.2-2.2,2.6-3.2,2.8
			c-0.3,0.1-0.4,0.2-0.5,0.5c-0.1,0.5-1.1,1.5-1.7,1.8C167.3,123.1,166.8,123.2,166.3,122.9L166.3,122.9z"/>
		<path id="KingWilliam" style="fill:#D6D6D6;" d="M169.9,148.1c-1-0.3-1.9-0.9-3.1-2c-0.5-0.4-1.2-0.9-1.5-1.1
			c-0.7-0.3-1.8-1.3-1.8-1.6c0-0.5,1-2,2.9-4.5c1.4-1.8,1.8-2.3,2.2-2.3c0.4,0,2.7,2.4,3.4,3.4c1,1.6,2.4,5,2.4,6.1
			c0,0.7-0.3,1.1-1.5,1.7C172,148.5,171.1,148.5,169.9,148.1L169.9,148.1z"/>
		<path id="Akimiski" style="fill:#D6D6D6;" d="M230.4,271.4c-2.4-0.8-2.5-1.7-0.4-2.2c1.4-0.3,1.6-0.3,2.4,0.7
			C234,271.8,233.3,272.4,230.4,271.4z"/>
	</g>
	<g id="NorthwestTerritories">
		<path id="Mackenzie" style="fill:#D6D6D6;" d="M141.2,214.3c-0.4-0.1-6.2-1.2-12.8-2.5c-9.6-1.8-14.5-3-24-5.8
			c-13.7-4-25-7.8-33.7-11.2l-6.1-2.4l-0.1-3.8l-0.1-3.8l-1.4-0.2c-0.8-0.1-2.4-0.8-3.6-1.5l-2.3-1.3l0.3-1.6
			c0.1-0.9,0.5-1.8,0.8-2.1c0.5-0.5,0.4-0.7-0.2-1.6c-0.4-0.6-1.2-2.3-1.7-3.8c-0.5-1.5-1.2-3.1-1.5-3.6c-0.6-0.9-0.6-1.3,0-5.1
			c0.3-2.3,0.9-5.2,1.2-6.5c0.3-1.3,0.5-2.5,0.4-2.7c-0.1-0.2-0.4-1.2-0.6-2.2c-0.5-2.6-1.5-6.7-2-7.8c-0.3-0.6-0.3-1.1,0-1.7
			c0.2-0.5,0.5-1.3,0.7-1.7c0.1-0.5,0.4-0.9,0.6-0.9c1,0,1.9-1.6,1.9-3.4c0-1.4-0.2-2.1-0.8-2.6c-1-0.9-1-2.4,0.2-5.2
			c0.6-1.4,0.9-2.7,0.8-3.2c-0.1-0.5-1.3-1.6-2.6-2.6c-1.3-0.9-2.3-1.8-2.3-2c0-1.3,5.7-12.8,6.6-13.4c0.2-0.1,0.6-0.1,0.8,0.2
			c0.7,0.7,1.1,0.5,1.1-0.9c0-1.5,0.2-1.7,3.6-2l2.5-0.3l0.3,1.4c0.3,1.7,0.7,2,1.8,1.4c0.5-0.2,3.1-0.6,5.8-0.9
			c6.1-0.5,7.4-0.2,7.4,1.9c0,1.1,0.1,1.3,1,1.3c0.5,0,1.5-0.3,2.2-0.6c2.4-1.2,3.1-0.1,3.1,5.3c0,3.8,0.6,4.1,3.3,1.6
			c1.2-1.1,2.3-2,2.5-2s0.4,0.8,0.5,1.8c0.1,1.3,0,2-0.6,2.7c-1.3,1.6,0.2,2.3,2.1,0.9c1.9-1.5,4.8-0.5,6.5,2.3
			c1.3,2.2,1.1,3.3-1,9.2c-1.3,3.6-1.6,4.6-1.2,5.3c0.3,0.7,17.1,24,17.9,24.8c0.2,0.2,1.8,0.6,3.5,1s3.3,0.9,3.3,1
			c0.1,0.2,0.9,1.5,1.8,2.9l1.6,2.5l9.7,5.1c5.3,2.8,9.7,5.2,9.8,5.3c0.1,0.1-0.1,3.1-0.5,6.7c-0.3,3.6-1.1,11.4-1.7,17.5l-1,11
			l-1.4,0C142.6,214.5,141.6,214.4,141.2,214.3L141.2,214.3z M104.4,196.9c0.9-0.5,2-0.9,2.4-0.9c0.9,0,6.4-2.8,7.6-3.8
			c0.4-0.4,1.5-1.1,2.4-1.6c1.4-0.8,2.5-2.1,2.5-3.1c0-0.2-0.8-0.4-1.7-0.4c-1.3,0-2,0.3-2.9,1c-1.9,1.6-3.8,2.2-5.8,1.9
			c-1.8-0.3-2.3-0.7-8.3-7.4c-0.8-0.9-1.5-1.4-1.6-1.3c-0.1,0.1,0.3,1.5,0.9,3.1c2.2,5.6,2.2,6.5,0.1,6.5c-0.5,0-1.6,0.4-2.3,0.9
			c-1.2,0.8-1.7,0.9-3.8,0.7c-3-0.2-3.1,0.2-0.8,2.5c2.1,2,2.9,2.4,5.6,2.8C101.3,198.2,102.3,198,104.4,196.9L104.4,196.9z
			 M90.7,158.7c1.9-0.7,2.2-1,2.9-2.7l0.8-1.9l1.2,0.5c0.7,0.3,1.7,0.7,2.3,1c0.9,0.4,1.2,0.4,2.6-0.5c1.5-1,2.3-2.2,1.8-2.9
			c-0.1-0.2-0.9-0.6-1.7-0.8c-0.8-0.3-2.4-0.9-3.6-1.4l-2.1-0.9l1.2-1.3c1.4-1.5,1.6-2.4,0.4-2.7c-0.5-0.1-4-0.2-7.8-0.2l-6.9,0
			l0.1,0.9c0.1,0.9,0.5,1,5,2.3c2.2,0.6,2.5,1.6,0.7,2.5c-1.8,0.9-5,4-5,4.9c0,0.8,1.7,2.3,2.6,2.3c0.3,0,1.4-0.5,2.5-1
			c1.1-0.6,2-0.9,2.1-0.8c0.1,0.1-0.3,0.8-0.8,1.5c-0.9,1.2-1.3,2.3-0.8,2.3C88.5,159.5,89.5,159.1,90.7,158.7L90.7,158.7z"/>
		<path id="Banks" style="fill:#D6D6D6;" d="M101.7,108.4c-0.1-0.2-0.4-1.5-0.6-2.8c-0.3-1.5-1.1-3.7-2-5.3l-1.5-2.8l1.5-1.6
			c1.3-1.4,3.4-4.3,8-10.7c0.9-1.2,1.2-2.2,1.4-3.9c0.2-2,0.3-2.2,1.1-2.3c1-0.1,5.1,0.9,6.6,1.7c0.5,0.3,1.6,1.3,2.3,2.3
			c1.4,2,2.9,2.9,4.6,2.9c1.8,0,2.2,0.5,3.6,4.6c1.4,4.3,1.1,4.9-2.9,6c-4.2,1.2-10.2,5.3-12.2,8.3c-1.9,2.8-2.3,3.1-5,3.4
			c-1.4,0.1-3,0.3-3.6,0.4C102.3,108.6,101.8,108.6,101.7,108.4L101.7,108.4z"/>
		<path id="NorthWestVictoria" style="fill:#D6D6D6;" d="M132.3,127.4c-1.6-0.3-17.1-4.8-17.3-5c-0.5-0.5,7.7,0.3,9.3,0.9
			c2.4,0.9,4.3,1.3,4.3,1c0-0.7-3.7-3.5-5-3.8c-0.8-0.2-2.6-0.6-4-0.9c-4.4-1-5.2-1.5-5.9-3.5c-0.7-2.1-0.9-1.9,3.5-3.2l2.2-0.7
			l-1.4-0.4c-0.7-0.2-1.6-0.4-1.9-0.5c-0.3-0.1-0.6-0.5-0.7-0.8c-0.1-0.4-0.6-1.4-1-2.3l-0.8-1.6l1.4-2.1c0.8-1.1,1.5-2.4,1.6-2.8
			c0.5-1.7,4.8-3.7,10.3-4.7c1.6-0.3,3-0.4,3.2-0.3c0.5,0.3,0.4,2.2-0.2,4.1c-0.3,0.9-0.5,1.8-0.4,1.9c0.1,0.1,0.7-0.2,1.4-0.7
			l1.2-0.9l1.6,1c3.1,1.9,3.2,1.9,2.6,3.3c-0.6,1.5-0.4,1.7,0.9,1.2c1-0.4,1-0.6,0.9-1.7c-0.1-0.9,0-1.5,0.3-1.8
			c0.3-0.3,0.6-0.4,0.7-0.3c0.2,0.2-5.8,24.8-6.1,24.9C133.1,127.5,132.7,127.4,132.3,127.4L132.3,127.4z"/>
		<path id="NorthWestBorden" style="fill:#D6D6D6;" d="M148.7,52.9c-0.7-0.5-1.7-0.9-2.2-0.9c-1.2,0-1.1-1,0-1.7
			c0.9-0.6,4.3-1,4.7-0.6c0.2,0.2-0.5,3.5-0.9,3.9C150.2,53.7,149.5,53.4,148.7,52.9L148.7,52.9z"/>
		<path id="MackenzieKing" style="fill:#D6D6D6;" d="M144.2,61.3c-0.4-0.4-1-1.4-1.3-2.2c-0.3-0.8-0.9-1.8-1.4-2.3
			c-1-1-1.3-2.9-0.4-2.9c0.3,0,0.8,0.3,1,0.8c0.4,0.7,0.7,0.7,4.3,0.5l3.9-0.2l-0.3,1.1c-1.3,5.8-1.4,6-3.5,6
			C145.6,62,144.7,61.8,144.2,61.3L144.2,61.3z"/>
		<path id="PrincePatrick" style="fill:#D6D6D6;" d="M122.8,69c-0.4-0.7-1-1.2-1.5-1.2c-1.6,0-2.8-0.7-2.8-1.7
			c0-1.3,1.3-2.3,4.4-3.5c1.6-0.6,3.5-1.7,4.6-2.8c1.1-1,2.4-1.9,2.9-2.1c1.3-0.5,5.3-0.4,6,0.1c1.1,0.9,1,2.5-0.3,3.9
			c-0.5,0.6-1,1.5-1,2c0,0.6-0.5,1.4-1.2,2c-0.7,0.6-1.5,1.3-1.7,1.6c-1.4,1.4-2.7-0.7-1.5-2.5c0.6-0.9,0.6-1-0.1-0.6
			c-0.4,0.2-1.7,1.4-2.8,2.6c-1.2,1.2-2.6,2.4-3.2,2.8C123.5,70.2,123.5,70.2,122.8,69L122.8,69z"/>
		<path id="Eglinton" style="fill:#D6D6D6;" d="M125,73.5c-0.6-1.3-0.2-2.1,1.7-2.9c2-0.9,3-1,3.3-0.1c0.2,0.4-0.3,1.1-1.7,2.3
			C126.1,74.7,125.6,74.8,125,73.5L125,73.5z"/>
		<path id="NorthWestMelville" style="fill:#D6D6D6;" d="M134.4,87.1c-1.6-1.7-1.5-2.6,0.5-3.3c3.3-1.1,3.7-1.3,3.5-1.7
			c-0.1-0.2-0.6-0.3-1.1-0.3c-0.5,0-1.2-0.3-1.7-0.6c-0.6-0.4-1-0.5-1.6-0.2c-1.6,0.8-2.6,0.5-4.5-1.6c-1.9-2.1-2.2-3.1-1.1-3.9
			c0.7-0.5,1.3-1.5,2.5-3.9c0.9-1.9,3.4-3.8,5-3.8c1.7,0,2.7,0.6,2.7,1.6c0,0.4,0.5,1.3,1.2,2c1.5,1.5,1.8,2.1,2.1,4.4
			c0.3,2.3,0.7,2.9,2,2.9c1.1,0,1.2,0.7,0.2,4.5c-0.7,2.6-0.8,2.7-2.8,4C138.4,88.9,136.2,88.9,134.4,87.1L134.4,87.1z"/>
	</g>
</g>
</svg>
