<?xml version="1.0" encoding="utf-8"?>
<!-- Generator: Adobe Illustrator 24.1.2, SVG Export Plug-In . SVG Version: 6.00 Build 0)  -->
<svg version="1.1" id="Layer_1" xmlns="http://www.w3.org/2000/svg" xmlns:xlink="http://www.w3.org/1999/xlink" x="0px" y="0px"
	 viewBox="0 0 374.8 354.7" style="enable-background:new 0 0 374.8 354.7;" xml:space="preserve">
<path style="fill:#D6D6D6;" d="M312.2,173.1H65c-2.6,0-4.8,2.1-4.8,4.6v120.7c0,2.5,2.1,4.6,4.8,4.6h19.8v-91
	c0-7.2,6.1-13.1,13.5-13.1h1.8c7.4,0,13.5,5.9,13.5,13.1v91h31.9v-91c0-7.2,6.1-13.1,13.5-13.1h1.8c7.4,0,13.5,5.9,13.5,13.1v91
	h31.9v-91c0-7.2,6.1-13.1,13.5-13.1h1.8c7.4,0,13.5,5.9,13.5,13.1v91h31.9v-91c0-7.2,6.1-13.1,13.5-13.1h1.8
	c7.4,0,13.5,5.9,13.5,13.1v91h16.1c2.6,0,4.8-2.1,4.8-4.6V177.8C317,175.2,314.8,173.1,312.2,173.1z"/>
<polygon style="fill:#D6D6D6;stroke:#D6D6D6;stroke-width:5;stroke-linecap:round;stroke-linejoin:round;stroke-miterlimit:10;" points="
	188.6,88.3 46.1,162.1 331.2,162.1 "/>
<line style="fill:none;stroke:#919191;stroke-width:12;stroke-linejoin:round;stroke-miterlimit:10;" x1="49.8" y1="172.5" x2="327.4" y2="172.5"/>
<line style="fill:none;stroke:#919191;stroke-width:17;stroke-linejoin:round;stroke-miterlimit:10;" x1="49.8" y1="305.2" x2="327.4" y2="305.2"/>
<line style="fill:none;stroke:#919191;stroke-width:17;stroke-linejoin:round;stroke-miterlimit:10;" x1="35.1" y1="318.7" x2="342.1" y2="318.7"/>
<line style="fill:none;stroke:#D6D6D6;stroke-width:5;stroke-linecap:round;stroke-linejoin:round;stroke-miterlimit:10;" x1="188.6" y1="85.7" x2="188.6" y2="37.1"/>
<polygon style="fill:none;stroke:#D6D6D6;stroke-width:5;stroke-linecap:round;stroke-linejoin:round;stroke-miterlimit:10;" points="
	239,66.9 188.6,66.9 188.6,37.1 239,37.1 223,51.8 "/>
</svg>
